<svg width="675" height="377" viewBox="0 0 675 377" fill="none" xmlns="http://www.w3.org/2000/svg">
<rect width="675" height="377" rx="20" fill="#7926D1"/>
<path d="M140.432 176.159H131.932C131.689 174.765 131.242 173.53 130.591 172.455C129.939 171.364 129.129 170.439 128.159 169.682C127.189 168.924 126.083 168.356 124.841 167.977C123.614 167.583 122.288 167.386 120.864 167.386C118.333 167.386 116.091 168.023 114.136 169.295C112.182 170.553 110.652 172.402 109.545 174.841C108.439 177.265 107.886 180.227 107.886 183.727C107.886 187.288 108.439 190.288 109.545 192.727C110.667 195.152 112.197 196.985 114.136 198.227C116.091 199.455 118.326 200.068 120.841 200.068C122.235 200.068 123.538 199.886 124.75 199.523C125.977 199.144 127.076 198.591 128.045 197.864C129.03 197.136 129.856 196.242 130.523 195.182C131.205 194.121 131.674 192.909 131.932 191.545L140.432 191.591C140.114 193.803 139.424 195.879 138.364 197.818C137.318 199.758 135.947 201.47 134.25 202.955C132.553 204.424 130.568 205.576 128.295 206.409C126.023 207.227 123.5 207.636 120.727 207.636C116.636 207.636 112.985 206.689 109.773 204.795C106.561 202.902 104.03 200.167 102.182 196.591C100.333 193.015 99.4091 188.727 99.4091 183.727C99.4091 178.712 100.341 174.424 102.205 170.864C104.068 167.288 106.606 164.553 109.818 162.659C113.03 160.765 116.667 159.818 120.727 159.818C123.318 159.818 125.727 160.182 127.955 160.909C130.182 161.636 132.167 162.705 133.909 164.114C135.652 165.508 137.083 167.22 138.205 169.25C139.341 171.265 140.083 173.568 140.432 176.159ZM189.744 183.727C189.744 188.742 188.805 193.038 186.926 196.614C185.063 200.174 182.517 202.902 179.29 204.795C176.078 206.689 172.434 207.636 168.358 207.636C164.282 207.636 160.631 206.689 157.403 204.795C154.191 202.886 151.646 200.152 149.767 196.591C147.903 193.015 146.972 188.727 146.972 183.727C146.972 178.712 147.903 174.424 149.767 170.864C151.646 167.288 154.191 164.553 157.403 162.659C160.631 160.765 164.282 159.818 168.358 159.818C172.434 159.818 176.078 160.765 179.29 162.659C182.517 164.553 185.063 167.288 186.926 170.864C188.805 174.424 189.744 178.712 189.744 183.727ZM181.267 183.727C181.267 180.197 180.714 177.22 179.608 174.795C178.517 172.356 177.002 170.515 175.062 169.273C173.123 168.015 170.888 167.386 168.358 167.386C165.828 167.386 163.593 168.015 161.653 169.273C159.714 170.515 158.191 172.356 157.085 174.795C155.994 177.22 155.449 180.197 155.449 183.727C155.449 187.258 155.994 190.242 157.085 192.682C158.191 195.106 159.714 196.947 161.653 198.205C163.593 199.447 165.828 200.068 168.358 200.068C170.888 200.068 173.123 199.447 175.062 198.205C177.002 196.947 178.517 195.106 179.608 192.682C180.714 190.242 181.267 187.258 181.267 183.727ZM235.966 160.455V207H228.466L206.534 175.295H206.148V207H197.716V160.455H205.261L227.17 192.182H227.58V160.455H235.966ZM251.381 160.455L263.494 197.091H263.972L276.062 160.455H285.335L268.926 207H258.517L242.131 160.455H251.381ZM299.898 160.455V207H291.466V160.455H299.898ZM306.983 167.523V160.455H344.119V167.523H329.733V207H321.369V167.523H306.983ZM351.278 207V160.455H381.551V167.523H359.71V180.159H379.983V187.227H359.71V199.932H381.733V207H351.278ZM406.028 207V160.455H435.847V167.523H414.46V180.159H433.801V187.227H414.46V207H406.028ZM443.693 207H434.693L451.08 160.455H461.489L477.898 207H468.898L456.466 170H456.102L443.693 207ZM443.989 188.75H468.534V195.523H443.989V188.75ZM453.125 155.864L458.216 145.477H466.261L459.284 155.864H453.125ZM521.682 176.159H513.182C512.939 174.765 512.492 173.53 511.841 172.455C511.189 171.364 510.379 170.439 509.409 169.682C508.439 168.924 507.333 168.356 506.091 167.977C504.864 167.583 503.538 167.386 502.114 167.386C499.583 167.386 497.341 168.023 495.386 169.295C493.432 170.553 491.902 172.402 490.795 174.841C489.689 177.265 489.136 180.227 489.136 183.727C489.136 187.288 489.689 190.288 490.795 192.727C491.917 195.152 493.447 196.985 495.386 198.227C497.341 199.455 499.576 200.068 502.091 200.068C503.485 200.068 504.788 199.886 506 199.523C507.227 199.144 508.326 198.591 509.295 197.864C510.28 197.136 511.106 196.242 511.773 195.182C512.455 194.121 512.924 192.909 513.182 191.545L521.682 191.591C521.364 193.803 520.674 195.879 519.614 197.818C518.568 199.758 517.197 201.47 515.5 202.955C513.803 204.424 511.818 205.576 509.545 206.409C507.273 207.227 504.75 207.636 501.977 207.636C497.886 207.636 494.235 206.689 491.023 204.795C487.811 202.902 485.28 200.167 483.432 196.591C481.583 193.015 480.659 188.727 480.659 183.727C480.659 178.712 481.591 174.424 483.455 170.864C485.318 167.288 487.856 164.553 491.068 162.659C494.28 160.765 497.917 159.818 501.977 159.818C504.568 159.818 506.977 160.182 509.205 160.909C511.432 161.636 513.417 162.705 515.159 164.114C516.902 165.508 518.333 167.22 519.455 169.25C520.591 171.265 521.333 173.568 521.682 176.159ZM537.835 160.455V207H529.403V160.455H537.835ZM546.966 207V160.455H555.398V199.932H575.898V207H546.966Z" fill="white"/>
<path d="M284.448 253.17C283.716 253.17 283.079 252.988 282.536 252.622C281.996 252.256 281.577 251.755 281.278 251.12C280.98 250.484 280.831 249.76 280.831 248.946C280.831 248.126 280.982 247.396 281.284 246.757C281.589 246.118 282.012 245.617 282.551 245.255C283.091 244.889 283.718 244.706 284.432 244.706C284.979 244.706 285.474 244.813 285.918 245.026C286.362 245.235 286.728 245.532 287.015 245.915C287.306 246.295 287.489 246.739 287.564 247.247H286.605C286.506 246.786 286.266 246.391 285.886 246.065C285.51 245.734 285.03 245.569 284.448 245.569C283.926 245.569 283.464 245.711 283.063 245.995C282.662 246.276 282.347 246.668 282.12 247.173C281.896 247.673 281.784 248.254 281.784 248.914C281.784 249.578 281.895 250.166 282.115 250.678C282.335 251.185 282.644 251.583 283.042 251.871C283.443 252.158 283.912 252.302 284.448 252.302C284.81 252.302 285.14 252.235 285.439 252.1C285.74 251.961 285.993 251.766 286.195 251.514C286.401 251.262 286.539 250.962 286.61 250.614H287.569C287.498 251.107 287.322 251.548 287.042 251.935C286.765 252.318 286.404 252.62 285.961 252.84C285.52 253.06 285.016 253.17 284.448 253.17ZM292.781 253.17C292.075 253.17 291.45 252.991 290.906 252.632C290.367 252.274 289.944 251.778 289.639 251.146C289.333 250.511 289.181 249.777 289.181 248.946C289.181 248.108 289.333 247.371 289.639 246.736C289.944 246.097 290.367 245.599 290.906 245.244C291.45 244.886 292.075 244.706 292.781 244.706C293.488 244.706 294.111 244.886 294.651 245.244C295.191 245.603 295.613 246.1 295.919 246.736C296.228 247.371 296.382 248.108 296.382 248.946C296.382 249.777 296.23 250.511 295.924 251.146C295.619 251.778 295.194 252.274 294.651 252.632C294.111 252.991 293.488 253.17 292.781 253.17ZM292.781 252.302C293.35 252.302 293.831 252.15 294.225 251.844C294.619 251.539 294.917 251.132 295.12 250.624C295.326 250.116 295.429 249.557 295.429 248.946C295.429 248.336 295.326 247.775 295.12 247.263C294.917 246.752 294.619 246.342 294.225 246.033C293.831 245.724 293.35 245.569 292.781 245.569C292.217 245.569 291.736 245.724 291.338 246.033C290.944 246.342 290.644 246.752 290.438 247.263C290.235 247.775 290.134 248.336 290.134 248.946C290.134 249.557 290.235 250.116 290.438 250.624C290.644 251.132 290.944 251.539 291.338 251.844C291.732 252.15 292.213 252.302 292.781 252.302ZM299.412 247.886V253H298.464V244.818H299.385V246.102H299.47C299.662 245.683 299.96 245.347 300.365 245.095C300.774 244.839 301.278 244.712 301.878 244.712C302.429 244.712 302.911 244.827 303.327 245.058C303.746 245.285 304.071 245.621 304.302 246.065C304.536 246.509 304.653 247.054 304.653 247.7V253H303.705V247.759C303.705 247.087 303.517 246.556 303.141 246.166C302.768 245.775 302.267 245.58 301.638 245.58C301.209 245.58 300.827 245.672 300.493 245.857C300.159 246.042 299.895 246.308 299.699 246.656C299.508 247 299.412 247.411 299.412 247.886ZM313.191 244.818L310.202 253H309.19L306.202 244.818H307.23L309.659 251.748H309.734L312.163 244.818H313.191ZM315.056 253V244.818H316.01V253H315.056ZM315.541 243.412C315.346 243.412 315.179 243.346 315.04 243.215C314.902 243.08 314.833 242.918 314.833 242.73C314.833 242.542 314.902 242.382 315.04 242.251C315.179 242.116 315.346 242.048 315.541 242.048C315.736 242.048 315.903 242.116 316.042 242.251C316.18 242.382 316.25 242.542 316.25 242.73C316.25 242.918 316.18 243.08 316.042 243.215C315.903 243.346 315.736 243.412 315.541 243.412ZM321.74 244.818V245.644H317.836V244.818H321.74ZM319.055 242.858H320.009V250.864C320.009 251.205 320.067 251.473 320.185 251.668C320.302 251.86 320.455 251.997 320.643 252.078C320.831 252.157 321.032 252.196 321.245 252.196C321.369 252.196 321.475 252.189 321.564 252.174C321.653 252.157 321.731 252.139 321.799 252.121L322.001 252.979C321.909 253.014 321.795 253.046 321.66 253.075C321.525 253.107 321.358 253.123 321.159 253.123C320.811 253.123 320.476 253.046 320.153 252.893C319.833 252.741 319.57 252.513 319.364 252.212C319.158 251.91 319.055 251.535 319.055 251.088V242.858ZM327.113 253.17C326.35 253.17 325.689 252.993 325.132 252.638C324.574 252.279 324.143 251.784 323.837 251.152C323.536 250.516 323.385 249.784 323.385 248.957C323.385 248.133 323.536 247.402 323.837 246.762C324.143 246.12 324.564 245.617 325.1 245.255C325.64 244.889 326.263 244.706 326.97 244.706C327.413 244.706 327.841 244.788 328.253 244.951C328.665 245.111 329.035 245.358 329.361 245.692C329.691 246.022 329.953 246.439 330.144 246.944C330.336 247.444 330.432 248.037 330.432 248.723V249.191H324.04V248.355H329.462C329.462 247.83 329.356 247.357 329.143 246.938C328.933 246.516 328.64 246.182 328.264 245.937C327.891 245.692 327.46 245.569 326.97 245.569C326.451 245.569 325.995 245.708 325.601 245.985C325.206 246.262 324.897 246.627 324.674 247.082C324.454 247.537 324.342 248.034 324.338 248.574V249.074C324.338 249.724 324.45 250.292 324.674 250.779C324.901 251.262 325.222 251.636 325.638 251.903C326.053 252.169 326.545 252.302 327.113 252.302C327.5 252.302 327.84 252.242 328.131 252.121C328.426 252 328.672 251.839 328.871 251.636C329.074 251.43 329.226 251.205 329.329 250.96L330.229 251.253C330.105 251.597 329.901 251.915 329.617 252.206C329.336 252.498 328.985 252.732 328.562 252.909C328.143 253.083 327.66 253.17 327.113 253.17ZM335.888 244.818V245.644H331.866V244.818H335.888ZM333.123 253V243.62C333.123 243.179 333.224 242.808 333.427 242.506C333.633 242.205 333.901 241.975 334.231 241.819C334.561 241.663 334.911 241.585 335.281 241.585C335.529 241.585 335.735 241.606 335.898 241.649C336.065 241.688 336.197 241.727 336.293 241.766L336.016 242.597C335.945 242.576 335.858 242.551 335.755 242.522C335.652 242.494 335.522 242.48 335.366 242.48C334.954 242.48 334.636 242.595 334.412 242.826C334.189 243.057 334.077 243.387 334.077 243.817L334.071 253H333.123ZM339.846 253.186C339.352 253.186 338.901 253.091 338.493 252.899C338.084 252.703 337.759 252.423 337.518 252.057C337.276 251.688 337.156 251.24 337.156 250.715C337.156 250.31 337.232 249.969 337.385 249.692C337.537 249.415 337.754 249.188 338.034 249.01C338.315 248.833 338.647 248.692 339.031 248.589C339.414 248.487 339.837 248.407 340.298 248.35C340.756 248.293 341.143 248.243 341.46 248.201C341.779 248.158 342.022 248.091 342.189 247.998C342.356 247.906 342.44 247.757 342.44 247.551V247.359C342.44 246.801 342.273 246.363 341.939 246.043C341.609 245.72 341.133 245.559 340.511 245.559C339.922 245.559 339.441 245.688 339.068 245.947C338.699 246.207 338.439 246.512 338.29 246.864L337.39 246.539C337.575 246.091 337.83 245.734 338.157 245.468C338.484 245.198 338.849 245.005 339.254 244.887C339.659 244.767 340.069 244.706 340.485 244.706C340.797 244.706 341.122 244.747 341.46 244.829C341.8 244.911 342.116 245.053 342.408 245.255C342.699 245.454 342.935 245.733 343.116 246.091C343.297 246.446 343.388 246.897 343.388 247.444V253H342.44V251.706H342.381C342.267 251.947 342.099 252.181 341.875 252.409C341.651 252.636 341.371 252.822 341.033 252.968C340.696 253.114 340.3 253.186 339.846 253.186ZM339.973 252.318C340.478 252.318 340.914 252.206 341.284 251.983C341.653 251.759 341.937 251.462 342.136 251.093C342.338 250.72 342.44 250.31 342.44 249.863V248.68C342.369 248.748 342.25 248.808 342.083 248.861C341.919 248.914 341.729 248.962 341.513 249.005C341.3 249.044 341.087 249.078 340.874 249.106C340.661 249.135 340.469 249.159 340.298 249.181C339.837 249.238 339.442 249.326 339.116 249.447C338.789 249.568 338.539 249.735 338.365 249.948C338.191 250.157 338.104 250.427 338.104 250.757C338.104 251.255 338.281 251.64 338.636 251.913C338.991 252.183 339.437 252.318 339.973 252.318ZM349.106 253.17C348.374 253.17 347.737 252.988 347.194 252.622C346.654 252.256 346.235 251.755 345.937 251.12C345.638 250.484 345.489 249.76 345.489 248.946C345.489 248.126 345.64 247.396 345.942 246.757C346.247 246.118 346.67 245.617 347.21 245.255C347.749 244.889 348.376 244.706 349.09 244.706C349.637 244.706 350.132 244.813 350.576 245.026C351.02 245.235 351.386 245.532 351.673 245.915C351.965 246.295 352.148 246.739 352.222 247.247H351.263C351.164 246.786 350.924 246.391 350.544 246.065C350.168 245.734 349.688 245.569 349.106 245.569C348.584 245.569 348.122 245.711 347.721 245.995C347.32 246.276 347.006 246.668 346.778 247.173C346.555 247.673 346.443 248.254 346.443 248.914C346.443 249.578 346.553 250.166 346.773 250.678C346.993 251.185 347.302 251.583 347.7 251.871C348.101 252.158 348.57 252.302 349.106 252.302C349.468 252.302 349.798 252.235 350.097 252.1C350.399 251.961 350.651 251.766 350.853 251.514C351.059 251.262 351.198 250.962 351.269 250.614H352.227C352.156 251.107 351.981 251.548 351.7 251.935C351.423 252.318 351.063 252.62 350.619 252.84C350.178 253.06 349.674 253.17 349.106 253.17ZM354.27 253V244.818H355.224V253H354.27ZM354.755 243.412C354.56 243.412 354.393 243.346 354.254 243.215C354.116 243.08 354.047 242.918 354.047 242.73C354.047 242.542 354.116 242.382 354.254 242.251C354.393 242.116 354.56 242.048 354.755 242.048C354.95 242.048 355.117 242.116 355.256 242.251C355.394 242.382 355.463 242.542 355.463 242.73C355.463 242.918 355.394 243.08 355.256 243.215C355.117 243.346 354.95 243.412 354.755 243.412ZM358.679 242.091V253H357.731V242.091H358.679ZM361.945 253.08C361.735 253.08 361.554 253.005 361.401 252.856C361.252 252.703 361.178 252.522 361.178 252.313C361.178 252.1 361.252 251.919 361.401 251.77C361.554 251.62 361.735 251.546 361.945 251.546C362.158 251.546 362.339 251.62 362.488 251.77C362.637 251.919 362.712 252.1 362.712 252.313C362.712 252.451 362.676 252.579 362.605 252.696C362.538 252.814 362.445 252.908 362.328 252.979C362.215 253.046 362.087 253.08 361.945 253.08ZM368.413 253.17C367.681 253.17 367.044 252.988 366.5 252.622C365.961 252.256 365.542 251.755 365.243 251.12C364.945 250.484 364.796 249.76 364.796 248.946C364.796 248.126 364.947 247.396 365.249 246.757C365.554 246.118 365.977 245.617 366.516 245.255C367.056 244.889 367.683 244.706 368.397 244.706C368.944 244.706 369.439 244.813 369.883 245.026C370.327 245.235 370.692 245.532 370.98 245.915C371.271 246.295 371.454 246.739 371.529 247.247H370.57C370.471 246.786 370.231 246.391 369.851 246.065C369.474 245.734 368.995 245.569 368.413 245.569C367.891 245.569 367.429 245.711 367.028 245.995C366.626 246.276 366.312 246.668 366.085 247.173C365.861 247.673 365.749 248.254 365.749 248.914C365.749 249.578 365.859 250.166 366.08 250.678C366.3 251.185 366.609 251.583 367.006 251.871C367.408 252.158 367.876 252.302 368.413 252.302C368.775 252.302 369.105 252.235 369.403 252.1C369.705 251.961 369.957 251.766 370.16 251.514C370.366 251.262 370.504 250.962 370.575 250.614H371.534C371.463 251.107 371.287 251.548 371.007 251.935C370.73 252.318 370.369 252.62 369.925 252.84C369.485 253.06 368.981 253.17 368.413 253.17ZM376.746 253.17C376.04 253.17 375.415 252.991 374.871 252.632C374.331 252.274 373.909 251.778 373.604 251.146C373.298 250.511 373.145 249.777 373.145 248.946C373.145 248.108 373.298 247.371 373.604 246.736C373.909 246.097 374.331 245.599 374.871 245.244C375.415 244.886 376.04 244.706 376.746 244.706C377.453 244.706 378.076 244.886 378.616 245.244C379.156 245.603 379.578 246.1 379.884 246.736C380.193 247.371 380.347 248.108 380.347 248.946C380.347 249.777 380.194 250.511 379.889 251.146C379.584 251.778 379.159 252.274 378.616 252.632C378.076 252.991 377.453 253.17 376.746 253.17ZM376.746 252.302C377.314 252.302 377.796 252.15 378.19 251.844C378.584 251.539 378.882 251.132 379.085 250.624C379.291 250.116 379.394 249.557 379.394 248.946C379.394 248.336 379.291 247.775 379.085 247.263C378.882 246.752 378.584 246.342 378.19 246.033C377.796 245.724 377.314 245.569 376.746 245.569C376.182 245.569 375.7 245.724 375.303 246.033C374.909 246.342 374.608 246.752 374.403 247.263C374.2 247.775 374.099 248.336 374.099 248.946C374.099 249.557 374.2 250.116 374.403 250.624C374.608 251.132 374.909 251.539 375.303 251.844C375.697 252.15 376.178 252.302 376.746 252.302ZM382.429 253V244.818H383.35V246.075H383.435C383.599 245.653 383.87 245.321 384.25 245.079C384.634 244.834 385.094 244.712 385.63 244.712C386.195 244.712 386.658 244.845 387.02 245.111C387.386 245.374 387.659 245.736 387.84 246.198H387.91C388.094 245.743 388.394 245.383 388.81 245.116C389.229 244.847 389.737 244.712 390.333 244.712C391.093 244.712 391.693 244.951 392.134 245.431C392.574 245.907 392.794 246.603 392.794 247.519V253H391.846V247.519C391.846 246.873 391.681 246.388 391.351 246.065C391.021 245.741 390.585 245.58 390.046 245.58C389.421 245.58 388.94 245.772 388.602 246.155C388.265 246.539 388.096 247.025 388.096 247.615V253H387.127V247.434C387.127 246.88 386.972 246.432 386.663 246.091C386.354 245.75 385.919 245.58 385.358 245.58C384.982 245.58 384.643 245.672 384.341 245.857C384.043 246.042 383.806 246.299 383.632 246.629C383.462 246.956 383.377 247.332 383.377 247.759V253H382.429Z" fill="white"/>
</svg>
